Coordinates
version=1
nRows=4
nColumns=69
inDegrees=yes

Units are S.I. units (second, meters, Newtons, ...)
If the header above contains a line with 'inDegrees', this indicates whether rotational values are in degrees (yes) or radians (no).

endheader
time	pelvis_tilt	pelvis_list	pelvis_rotation	pelvis_tx	pelvis_ty	pelvis_tz	hip_flexion_r	hip_adduction_r	hip_rotation_r	knee_angle_r	knee_angle_r_beta	ankle_angle_r	subtalar_angle_r	mtp_angle_r	hip_flexion_l	hip_adduction_l	hip_rotation_l	knee_angle_l	knee_angle_l_beta	ankle_angle_l	subtalar_angle_l	mtp_angle_l	L5_S1_Flex_Ext	L5_S1_Lat_Bending	L5_S1_axial_rotation	L4_L5_Flex_Ext	L4_L5_Lat_Bending	L4_L5_axial_rotation	L3_L4_Flex_Ext	L3_L4_Lat_Bending	L3_L4_axial_rotation	L2_L3_Flex_Ext	L2_L3_Lat_Bending	L2_L3_axial_rotation	L1_L2_Flex_Ext	L1_L2_Lat_Bending	L1_L2_axial_rotation	L1_T12_Flex_Ext	L1_T12_Lat_Bending	L1_T12_axial_rotation	Abs_r3	Abs_r2	Abs_r1	Abs_t1	Abs_t2	neck_flexion	neck_bending	neck_rotation	sh_tx_r	sh_ty_r	sh_tz_r	sh_plane_elev_r	sh_elev_r	sh_axial_rot_r	elbow_flex_r	pro_sup_r	wrist_flex_r	wrist_dev_r	sh_tx_l	sh_ty_l	sh_tz_l	sh_plane_elev_l	sh_elev_l	sh_axial_rot_l	elbow_flex_l	pro_sup_l	wrist_flex_l	wrist_dev_l
      0.00000000	     -7.04964044	     10.47317488	    -98.10178456	      0.01521412	      0.91074024	     -1.39423212	     21.33108644	     14.84065096	     -0.63120083	     36.39899440	      0.63528230	     15.47596164	    -18.60180866	      0.00000000	     54.44609868	     -3.87752832	      0.33271231	     41.91016137	      0.73147031	      4.49060658	    -10.55029228	      0.00000000	     -0.02613574	      1.38519616	      1.74116947	     -0.04853668	      1.84231089	      1.84999256	     -0.04293841	      3.36796594	      1.84999256	     -0.02987054	      3.36796594	      1.52352328	     -0.02426965	      2.82469201	      1.41470019	     -0.01493396	      2.14566885	      1.30587710	     -0.18668497	     15.66961599	      9.68386222	      0.00000000	      0.00000000	      0.00000000	      0.00000000	      0.00000001	     -0.02705229	     -0.01917239	     -0.00188773	    -14.05728756	     20.62331213	     -0.01466195	     40.35686469	     89.99559364	      0.00000000	      0.00000000	     -0.03669851	     -0.01952062	     -0.00340353	     -2.37303950	      5.45516866	      1.61395429	     18.35156482	     89.99559364	      0.00000000	      0.00000000
      0.01666670	     -8.42125671	      9.65970301	    -98.26587447	      0.01342123	      0.91196079	     -1.38536031	     19.06337932	     15.78050245	     -2.53691353	     36.35292376	      0.63447821	     16.70480677	    -16.51425475	      0.00000000	     53.08431545	     -4.23560214	      3.25689211	     41.42879051	      0.72306880	      1.57138382	    -10.79873430	      0.00000000	     -0.02081274	      1.58801340	      1.74641707	     -0.03865134	      2.11205782	      1.85556813	     -0.03419325	      3.86109577	      1.85556813	     -0.02378688	      3.86109577	      1.52811493	     -0.01932671	      3.23827692	      1.41896387	     -0.01189240	      2.45983275	      1.30981280	     -0.14866332	     17.96392513	      9.71304779	      0.00000000	      0.00000000	      0.00000000	      0.00000000	      0.00000001	     -0.02613396	     -0.01912183	     -0.00182820	    -16.06989983	     21.27247810	     -2.79307894	     41.85201150	     89.99559364	      0.00000000	      0.00000000	     -0.03560084	     -0.01952002	     -0.00342680	     -4.11818370	      5.35755151	      0.09533177	     18.06313078	     89.99559364	      0.00000000	      0.00000000
      0.03333330	     -8.26681327	      8.61353213	    -98.80151162	      0.01057232	      0.91390943	     -1.37674541	     17.29760674	     15.33911474	     -2.84149823	     37.28832539	      0.65080405	     20.71726277	    -13.29046580	      0.00000000	     51.18761005	     -3.99814050	      4.06789714	     41.13691146	      0.71797455	      1.02575820	    -10.94704195	      0.00000000	     -0.01559529	      1.54352682	      1.63370101	     -0.02896201	      2.05289067	      1.73580732	     -0.02562150	      3.75293111	      1.73580732	     -0.01782386	      3.75293111	      1.42948838	     -0.01448179	      3.14755989	      1.32738207	     -0.00891115	      2.39092304	      1.22527576	     -0.11139560	     17.46068408	      9.08615489	      0.00000000	      0.00000000	      0.00000000	      0.00000000	      0.00000001	     -0.02329907	     -0.01913201	     -0.00186042	    -16.47701591	     20.75989398	     -3.33896711	     42.60902480	     89.99559364	      0.00000000	      0.00000000	     -0.03298156	     -0.01953351	     -0.00333041	     -5.03424613	      5.64290822	     -0.36396626	     17.53116076	     89.99559364	      0.00000000	      0.00000000
      0.05000000	     -8.61375241	      7.80501775	    -98.45303482	      0.00835061	      0.91498861	     -1.36777365	     14.98715990	     15.38058799	     -3.54172368	     36.81656524	      0.64257028	     21.39925234	    -12.25629184	      0.00000000	     49.35841156	     -3.82128564	      4.83690940	     40.78367452	      0.71180940	      1.33611206	    -11.79262112	      0.00000000	     -0.01552609	      1.51779971	      1.48870399	     -0.02883350	      2.01867362	      1.58174799	     -0.02550781	      3.69037822	      1.58174799	     -0.01774477	      3.69037822	      1.30261599	     -0.01441753	      3.09509717	      1.20957199	     -0.00887161	      2.35107176	      1.11652799	     -0.11090131	     17.16965391	      8.27972498	      0.00000000	      0.00000000	      0.00000000	      0.00000000	      0.00000001	     -0.02337296	     -0.01914597	     -0.00187414	    -16.81207135	     20.43300926	     -3.63770316	     43.00380571	     89.99559364	      0.00000000	      0.00000000	     -0.02932423	     -0.01954165	     -0.00323209	     -5.51690636	      6.02342160	     -0.50578377	     17.42605769	     89.99559364	      0.00000000	      0.00000000
